<mxfile host="Electron" agent="Mozilla/5.0 (Macintosh; Intel Mac OS X 10_15_7) AppleWebKit/537.36 (KHTML, like Gecko) draw.io/28.1.2 Chrome/138.0.7204.243 Electron/37.4.0 Safari/537.36" version="28.1.2">
  <diagram name="第 1 页" id="llRe68xe6qa59onjqDn9">
    <mxGraphModel dx="1426" dy="912" grid="1" gridSize="10" guides="1" tooltips="1" connect="1" arrows="1" fold="1" page="1" pageScale="1" pageWidth="827" pageHeight="1169" math="0" shadow="0">
      <root>
        <mxCell id="0" />
        <mxCell id="1" parent="0" />
        <mxCell id="ucOQk9Oxl4SI-NbaLhnu-1" value="根据ReadView判断版本可见性" style="rounded=1;whiteSpace=wrap;html=1;fontStyle=1;fontSize=46;" vertex="1" parent="1">
          <mxGeometry x="80" width="670" height="80" as="geometry" />
        </mxCell>
        <mxCell id="ucOQk9Oxl4SI-NbaLhnu-2" value="" style="endArrow=classic;html=1;rounded=0;" edge="1" parent="1" source="ucOQk9Oxl4SI-NbaLhnu-13">
          <mxGeometry width="50" height="50" relative="1" as="geometry">
            <mxPoint x="40" y="440" as="sourcePoint" />
            <mxPoint x="760" y="440" as="targetPoint" />
          </mxGeometry>
        </mxCell>
        <mxCell id="ucOQk9Oxl4SI-NbaLhnu-4" value="" style="endArrow=none;html=1;rounded=0;endFill=0;" edge="1" parent="1" target="ucOQk9Oxl4SI-NbaLhnu-3">
          <mxGeometry width="50" height="50" relative="1" as="geometry">
            <mxPoint x="40" y="440" as="sourcePoint" />
            <mxPoint x="760" y="440" as="targetPoint" />
          </mxGeometry>
        </mxCell>
        <mxCell id="ucOQk9Oxl4SI-NbaLhnu-7" style="edgeStyle=orthogonalEdgeStyle;rounded=0;orthogonalLoop=1;jettySize=auto;html=1;exitX=0.5;exitY=1;exitDx=0;exitDy=0;dashed=1;" edge="1" parent="1" source="ucOQk9Oxl4SI-NbaLhnu-3" target="ucOQk9Oxl4SI-NbaLhnu-6">
          <mxGeometry relative="1" as="geometry" />
        </mxCell>
        <mxCell id="ucOQk9Oxl4SI-NbaLhnu-21" style="edgeStyle=orthogonalEdgeStyle;rounded=0;orthogonalLoop=1;jettySize=auto;html=1;exitX=0.5;exitY=0;exitDx=0;exitDy=0;entryX=1;entryY=0.5;entryDx=0;entryDy=0;dashed=1;dashPattern=12 12;" edge="1" parent="1" source="ucOQk9Oxl4SI-NbaLhnu-3" target="ucOQk9Oxl4SI-NbaLhnu-20">
          <mxGeometry relative="1" as="geometry" />
        </mxCell>
        <mxCell id="ucOQk9Oxl4SI-NbaLhnu-3" value="" style="ellipse;whiteSpace=wrap;html=1;aspect=fixed;" vertex="1" parent="1">
          <mxGeometry x="220" y="430" width="20" height="20" as="geometry" />
        </mxCell>
        <mxCell id="ucOQk9Oxl4SI-NbaLhnu-6" value="min_trx_id" style="text;html=1;align=left;verticalAlign=top;whiteSpace=wrap;rounded=0;fontSize=20;fontStyle=1" vertex="1" parent="1">
          <mxGeometry x="175" y="530" width="110" height="30" as="geometry" />
        </mxCell>
        <mxCell id="ucOQk9Oxl4SI-NbaLhnu-10" value="" style="endArrow=none;html=1;rounded=0;endFill=0;" edge="1" parent="1" source="ucOQk9Oxl4SI-NbaLhnu-3" target="ucOQk9Oxl4SI-NbaLhnu-9">
          <mxGeometry width="50" height="50" relative="1" as="geometry">
            <mxPoint x="150" y="440" as="sourcePoint" />
            <mxPoint x="760" y="440" as="targetPoint" />
          </mxGeometry>
        </mxCell>
        <mxCell id="ucOQk9Oxl4SI-NbaLhnu-12" style="edgeStyle=orthogonalEdgeStyle;rounded=0;orthogonalLoop=1;jettySize=auto;html=1;exitX=0.5;exitY=1;exitDx=0;exitDy=0;entryX=0.5;entryY=0;entryDx=0;entryDy=0;dashed=1;" edge="1" parent="1" source="ucOQk9Oxl4SI-NbaLhnu-9" target="ucOQk9Oxl4SI-NbaLhnu-11">
          <mxGeometry relative="1" as="geometry" />
        </mxCell>
        <mxCell id="ucOQk9Oxl4SI-NbaLhnu-31" style="edgeStyle=orthogonalEdgeStyle;rounded=0;orthogonalLoop=1;jettySize=auto;html=1;exitX=0.5;exitY=1;exitDx=0;exitDy=0;dashed=1;dashPattern=12 12;" edge="1" parent="1" source="ucOQk9Oxl4SI-NbaLhnu-9" target="ucOQk9Oxl4SI-NbaLhnu-30">
          <mxGeometry relative="1" as="geometry" />
        </mxCell>
        <mxCell id="ucOQk9Oxl4SI-NbaLhnu-9" value="" style="ellipse;whiteSpace=wrap;html=1;aspect=fixed;" vertex="1" parent="1">
          <mxGeometry x="516" y="430" width="20" height="20" as="geometry" />
        </mxCell>
        <mxCell id="ucOQk9Oxl4SI-NbaLhnu-11" value="creator_trx_id" style="text;html=1;align=left;verticalAlign=top;whiteSpace=wrap;rounded=0;fontSize=20;fontStyle=1" vertex="1" parent="1">
          <mxGeometry x="415" y="530" width="140" height="30" as="geometry" />
        </mxCell>
        <mxCell id="ucOQk9Oxl4SI-NbaLhnu-14" value="" style="endArrow=classic;html=1;rounded=0;" edge="1" parent="1" source="ucOQk9Oxl4SI-NbaLhnu-9" target="ucOQk9Oxl4SI-NbaLhnu-13">
          <mxGeometry width="50" height="50" relative="1" as="geometry">
            <mxPoint x="380" y="440" as="sourcePoint" />
            <mxPoint x="760" y="440" as="targetPoint" />
          </mxGeometry>
        </mxCell>
        <mxCell id="ucOQk9Oxl4SI-NbaLhnu-16" style="edgeStyle=orthogonalEdgeStyle;rounded=0;orthogonalLoop=1;jettySize=auto;html=1;exitX=0.5;exitY=1;exitDx=0;exitDy=0;entryX=0.5;entryY=0;entryDx=0;entryDy=0;dashed=1;" edge="1" parent="1" source="ucOQk9Oxl4SI-NbaLhnu-13" target="ucOQk9Oxl4SI-NbaLhnu-15">
          <mxGeometry relative="1" as="geometry" />
        </mxCell>
        <mxCell id="ucOQk9Oxl4SI-NbaLhnu-23" style="edgeStyle=orthogonalEdgeStyle;rounded=0;orthogonalLoop=1;jettySize=auto;html=1;exitX=0.5;exitY=0;exitDx=0;exitDy=0;entryX=0;entryY=0.5;entryDx=0;entryDy=0;dashed=1;dashPattern=12 12;" edge="1" parent="1" source="ucOQk9Oxl4SI-NbaLhnu-13" target="ucOQk9Oxl4SI-NbaLhnu-22">
          <mxGeometry relative="1" as="geometry" />
        </mxCell>
        <mxCell id="ucOQk9Oxl4SI-NbaLhnu-13" value="" style="ellipse;whiteSpace=wrap;html=1;aspect=fixed;fillColor=light-dark(#000000, #ffffff);" vertex="1" parent="1">
          <mxGeometry x="536" y="430" width="20" height="20" as="geometry" />
        </mxCell>
        <mxCell id="ucOQk9Oxl4SI-NbaLhnu-15" value="max_trx_id" style="text;html=1;align=left;verticalAlign=top;whiteSpace=wrap;rounded=0;fontSize=20;fontStyle=1" vertex="1" parent="1">
          <mxGeometry x="590" y="530" width="110" height="30" as="geometry" />
        </mxCell>
        <mxCell id="ucOQk9Oxl4SI-NbaLhnu-20" value="生成该版本的事务,在当前事务生成ReadView前已经提交,所以该版本可以被当前事务访问" style="text;html=1;align=left;verticalAlign=top;whiteSpace=wrap;rounded=0;fontSize=15;fontStyle=1" vertex="1" parent="1">
          <mxGeometry x="10" y="290" width="200" height="80" as="geometry" />
        </mxCell>
        <mxCell id="ucOQk9Oxl4SI-NbaLhnu-22" value="生成该版本的事务,在当前事务生成ReadView后才开启,所以该版本不可以被当前事务访问" style="text;html=1;align=left;verticalAlign=top;whiteSpace=wrap;rounded=0;fontSize=15;fontStyle=1" vertex="1" parent="1">
          <mxGeometry x="580" y="290" width="240" height="70" as="geometry" />
        </mxCell>
        <mxCell id="ucOQk9Oxl4SI-NbaLhnu-24" value="&lt;div&gt;被访问版本的trx_id在ReadView.m_ids中: 说明生成该版本的事务在当前事务生成ReadView时还是活跃的,该版本不可以被当前事务访问&lt;/div&gt;&lt;div&gt;&lt;br&gt;&lt;/div&gt;&lt;div&gt;被访问版本的trx_id不再ReadView.m_ids中: 说明生成该版本的事务在当前事务生成ReadView时已经提交,该版本可以被当前事务访问&lt;/div&gt;" style="text;html=1;align=left;verticalAlign=top;whiteSpace=wrap;rounded=0;fontSize=15;fontStyle=1" vertex="1" parent="1">
          <mxGeometry x="210" y="170" width="355" height="140" as="geometry" />
        </mxCell>
        <mxCell id="ucOQk9Oxl4SI-NbaLhnu-27" style="edgeStyle=orthogonalEdgeStyle;rounded=0;orthogonalLoop=1;jettySize=auto;html=1;exitX=0.5;exitY=0;exitDx=0;exitDy=0;entryX=0.141;entryY=0.993;entryDx=0;entryDy=0;entryPerimeter=0;dashed=1;dashPattern=12 12;" edge="1" parent="1" source="ucOQk9Oxl4SI-NbaLhnu-3" target="ucOQk9Oxl4SI-NbaLhnu-24">
          <mxGeometry relative="1" as="geometry" />
        </mxCell>
        <mxCell id="ucOQk9Oxl4SI-NbaLhnu-29" style="edgeStyle=orthogonalEdgeStyle;rounded=0;orthogonalLoop=1;jettySize=auto;html=1;exitX=0.5;exitY=0;exitDx=0;exitDy=0;entryX=0.837;entryY=1.029;entryDx=0;entryDy=0;entryPerimeter=0;dashed=1;dashPattern=12 12;" edge="1" parent="1" source="ucOQk9Oxl4SI-NbaLhnu-9" target="ucOQk9Oxl4SI-NbaLhnu-24">
          <mxGeometry relative="1" as="geometry" />
        </mxCell>
        <mxCell id="ucOQk9Oxl4SI-NbaLhnu-30" value="当前事务在访问它自己修改过的记录,所以该版本可以被当前事务访问" style="text;html=1;align=left;verticalAlign=top;whiteSpace=wrap;rounded=0;fontSize=15;fontStyle=1" vertex="1" parent="1">
          <mxGeometry x="426" y="640" width="200" height="60" as="geometry" />
        </mxCell>
      </root>
    </mxGraphModel>
  </diagram>
</mxfile>
